<?xml version="1.0" encoding="UTF-8"?>
<svg xmlns="http://www.w3.org/2000/svg" xmlns:xlink="http://www.w3.org/1999/xlink" viewBox="0 0 900.86 360">
  <defs>
    <style>
      .cls-1 {
        fill: url(#linear-gradient);
      }

      .cls-2 {
        fill: #fff;
      }
    </style>
    <linearGradient id="linear-gradient" x1="37.25" y1="186.27" x2="858.79" y2="186.27" gradientUnits="userSpaceOnUse">
      <stop offset=".01" stop-color="#fff" stop-opacity=".07"/>
      <stop offset=".02" stop-color="#fff" stop-opacity=".12"/>
      <stop offset=".06" stop-color="#fff" stop-opacity=".21"/>
      <stop offset=".09" stop-color="#fff" stop-opacity=".26"/>
      <stop offset=".11" stop-color="#fff" stop-opacity=".28"/>
      <stop offset=".12" stop-color="#fff" stop-opacity=".37"/>
      <stop offset=".12" stop-color="#fff" stop-opacity=".52"/>
      <stop offset=".13" stop-color="#fff" stop-opacity=".65"/>
      <stop offset=".13" stop-color="#fff" stop-opacity=".75"/>
      <stop offset=".14" stop-color="#fff" stop-opacity=".82"/>
      <stop offset=".15" stop-color="#fff" stop-opacity=".87"/>
      <stop offset=".15" stop-color="#fff" stop-opacity=".88"/>
      <stop offset=".16" stop-color="#fff" stop-opacity=".83"/>
      <stop offset=".18" stop-color="#fff" stop-opacity=".71"/>
      <stop offset=".2" stop-color="#fff" stop-opacity=".51"/>
      <stop offset=".22" stop-color="#fff" stop-opacity=".23"/>
      <stop offset=".23" stop-color="#fff" stop-opacity=".07"/>
      <stop offset=".3" stop-color="#fff" stop-opacity=".94"/>
      <stop offset=".3" stop-color="#fefefe" stop-opacity=".92"/>
      <stop offset=".32" stop-color="#fafcfe" stop-opacity=".68"/>
      <stop offset=".35" stop-color="#f6f9fd" stop-opacity=".48"/>
      <stop offset=".37" stop-color="#f3f8fc" stop-opacity=".32"/>
      <stop offset=".38" stop-color="#f1f7fc" stop-opacity=".21"/>
      <stop offset=".4" stop-color="#f0f6fc" stop-opacity=".14"/>
      <stop offset=".41" stop-color="#f0f6fc" stop-opacity=".12"/>
      <stop offset=".43" stop-color="#fafcfe" stop-opacity=".18"/>
      <stop offset=".45" stop-color="#fff" stop-opacity=".21"/>
      <stop offset=".48" stop-color="#fff" stop-opacity=".84"/>
      <stop offset=".49" stop-color="#fff" stop-opacity=".74"/>
      <stop offset=".55" stop-color="#fff" stop-opacity=".38"/>
      <stop offset=".59" stop-color="#fff" stop-opacity=".16"/>
      <stop offset=".6" stop-color="#fff" stop-opacity=".07"/>
      <stop offset=".62" stop-color="#fff" stop-opacity=".08"/>
      <stop offset=".64" stop-color="#fff" stop-opacity=".13"/>
      <stop offset=".66" stop-color="#fff" stop-opacity=".21"/>
      <stop offset=".68" stop-color="#fff" stop-opacity=".31"/>
      <stop offset=".69" stop-color="#fff" stop-opacity=".39"/>
      <stop offset=".69" stop-color="#fff" stop-opacity=".4"/>
      <stop offset=".71" stop-color="#fff" stop-opacity=".65"/>
      <stop offset=".73" stop-color="#fff" stop-opacity=".83"/>
      <stop offset=".74" stop-color="#fff" stop-opacity=".94"/>
      <stop offset=".75" stop-color="#fff" stop-opacity=".98"/>
      <stop offset=".76" stop-color="#fff" stop-opacity=".71"/>
      <stop offset=".77" stop-color="#fff" stop-opacity=".48"/>
      <stop offset=".79" stop-color="#fff" stop-opacity=".3"/>
      <stop offset=".8" stop-color="#fff" stop-opacity=".18"/>
      <stop offset=".8" stop-color="#fff" stop-opacity=".1"/>
      <stop offset=".81" stop-color="#fff" stop-opacity=".07"/>
      <stop offset=".91" stop-color="#fff" stop-opacity=".93"/>
      <stop offset=".92" stop-color="#fff" stop-opacity=".79"/>
      <stop offset=".96" stop-color="#fff" stop-opacity=".34"/>
      <stop offset=".99" stop-color="#fff" stop-opacity=".08"/>
    </linearGradient>
  </defs>
  <g id="bold_wave" data-name="bold wave">
    <path class="cls-1" d="M37.25,186.07c21.71-10.62,42.46-10.62,62.03,0,20.07,10.89,39.96,12.12,64.37,0,19.91-9.88,41.68-10.62,63.2,0,19.92,9.83,40.74,12.12,63.2,0,19.72-10.64,42.54-10.62,63.2,0,19.83,10.19,41.6,12.12,63.2,0,19.62-11.01,43.39-10.62,63.2,0,19.73,10.58,41.91,12.12,63.2,0,19.58-11.15,42.61-10.62,63.2,0,19.82,10.23,42.22,12.12,63.2,0,19.54-11.29,42.92-10.62,63.2,0,19.79,10.36,40.89,12.12,63.2,0,19.7-10.7,42.69-10.62,63.2,0"/>
    <path class="cls-1" d="M37.25,186.07c21.71-10.62,42.46-10.62,62.03,0,20.07,10.89,39.96,12.12,64.37,0,19.91-9.88,41.68-10.62,63.2,0,19.92,9.83,40.74,12.12,63.2,0,19.72-10.64,42.54-10.62,63.2,0,19.83,10.19,41.6,12.12,63.2,0,19.62-11.01,43.39-10.62,63.2,0,19.73,10.58,41.91,12.12,63.2,0,19.58-11.15,42.61-10.62,63.2,0,19.82,10.23,42.22,12.12,63.2,0,19.54-11.29,42.92-10.62,63.2,0,19.79,10.36,40.89,12.12,63.2,0,19.7-10.7,42.69-10.62,63.2,0"/>
  </g>
  <g id="bold_wide_type" data-name="bold wide type">
    <path class="cls-2" d="M86.76,137.15h13.91s8.06,18.59,8.06,18.72l7.67-18.72h13.13l-14.3,33.54,11.7,27.17,23.66-60.71h13.65l-36.79,89.7h-1.04l-17.94-40.43c.13-.13-17.29,40.43-17.29,40.43h-1.04l-37.96-89.7h14.43l24.96,60.71,10.53-25.87-15.34-34.84Z"/>
    <path class="cls-2" d="M164.11,137.15h14.69l25.22,59.41,24.44-59.41h14.04l-38.22,89.7h-.78l-39.39-89.7Z"/>
    <path class="cls-2" d="M257.71,137.15h56.29v12.35h-42.38v63.7h44.2v12.35h-58.11v-88.4Z"/>
    <path class="cls-2" d="M336.93,137.15h13.91v76.05h39v12.35h-52.91v-88.4Z"/>
    <path class="cls-2" d="M407.74,137.15h56.29v12.35h-42.38v63.7h44.2v12.35h-58.11v-88.4Z"/>
    <path class="cls-2" d="M500.96,167.44v58.11h-13v-89.7h1.04l56.68,59.41v-58.11h13v89.7h-1.04l-56.68-59.41Z"/>
    <path class="cls-2" d="M578.36,181.35c0-26.13,20.02-45.37,45.37-45.37,16.38,0,26.26,5.85,33.54,14.04l-9.62,9.1c-5.33-5.85-11.44-10.53-24.31-10.53-17.94,0-30.55,14.04-30.55,32.76s12.74,32.76,32.89,32.76c9.62,0,16.38-2.21,21.45-5.59v-10.01h0v-12.35h12.87v28.99c-7.41,6.11-17.68,11.57-34.32,11.57-27.17,0-47.32-19.24-47.32-45.37Z"/>
    <path class="cls-2" d="M698.36,149.5h-26.26v-12.35h66.43v12.35h-26.26v76.05h-13.91v-76.05Z"/>
    <rect class="cls-2" x="756.13" y="137.15" width="13.91" height="88.4"/>
    <rect class="cls-2" x="812.42" y="137.15" width="13.91" height="88.4"/>
  </g>
</svg>